{
  "accessors": [
    {
      "bufferView": 3,
      "componentType": 5126,
      "count": 542,
      "max": [
        2.2347753047943115,
        6.9699416160583496,
        3.3811409473419189
      ],
      "min": [
        -2.2347753047943115,
        1.4472146034240723,
        -3.1532325744628906
      ],
      "type": "VEC3"
    },
    {
      "bufferView": 3,
      "byteOffset": 6504,
      "componentType": 5126,
      "count": 542,
      "max": [
        1,
        1,
        0.99995404481887817
      ],
      "min": [
        -1,
        -0.99352085590362549,
        -0.99995404481887817
      ],
      "type": "VEC3"
    },
    {
      "bufferView": 2,
      "componentType": 5126,
      "count": 542,
      "max": [
        1,
        1
      ],
      "min": [
        0,
        0
      ],
      "type": "VEC2"
    },
    {
      "bufferView": 1,
      "componentType": 5125,
      "count": 2616,
      "max": [
        541
      ],
      "min": [
        0
      ],
      "type": "SCALAR"
    },
    {
      "bufferView": 3,
      "byteOffset": 13008,
      "componentType": 5126,
      "count": 589,
      "max": [
        3.6469483375549316,
        9.0214805603027344,
        1.1753838062286377
      ],
      "min": [
        -3.6464147567749023,
        6.0000119209289551,
        -3.0447049140930176
      ],
      "type": "VEC3"
    },
    {
      "bufferView": 3,
      "byteOffset": 20076,
      "componentType": 5126,
      "count": 589,
      "max": [
        0.9996345043182373,
        0.99999165534973145,
        0.99977338314056396
      ],
      "min": [
        -0.9996345043182373,
        -0.99974900484085083,
        -0.99976927042007446
      ],
      "type": "VEC3"
    },
    {
      "bufferView": 2,
      "byteOffset": 4336,
      "componentType": 5126,
      "count": 589,
      "max": [
        1,
        1
      ],
      "min": [
        0,
        0
      ],
      "type": "VEC2"
    },
    {
      "bufferView": 1,
      "byteOffset": 10464,
      "componentType": 5125,
      "count": 2400,
      "max": [
        588
      ],
      "min": [
        0
      ],
      "type": "SCALAR"
    },
    {
      "bufferView": 3,
      "byteOffset": 27144,
      "componentType": 5126,
      "count": 489,
      "max": [
        0.38737973570823669,
        7.1381149291992188,
        2.4114298820495605
      ],
      "min": [
        -0.38737973570823669,
        5.2575297355651855,
        -1.9432468414306641
      ],
      "type": "VEC3"
    },
    {
      "bufferView": 3,
      "byteOffset": 33012,
      "componentType": 5126,
      "count": 489,
      "max": [
        1,
        0.98458731174468994,
        0.99311023950576782
      ],
      "min": [
        -1,
        -0.98458725214004517,
        -0.99311017990112305
      ],
      "type": "VEC3"
    },
    {
      "bufferView": 2,
      "byteOffset": 9048,
      "componentType": 5126,
      "count": 489,
      "max": [
        1,
        1
      ],
      "min": [
        0,
        0
      ],
      "type": "VEC2"
    },
    {
      "bufferView": 1,
      "byteOffset": 20064,
      "componentType": 5125,
      "count": 2304,
      "max": [
        488
      ],
      "min": [
        0
      ],
      "type": "SCALAR"
    },
    {
      "bufferView": 3,
      "byteOffset": 38880,
      "componentType": 5126,
      "count": 3177,
      "max": [
        3.2132511138916016,
        8.9564790725708008,
        4.7306060791015625
      ],
      "min": [
        -3.251035213470459,
        0.58871138095855713,
        -3.435610294342041
      ],
      "type": "VEC3"
    },
    {
      "bufferView": 3,
      "byteOffset": 77004,
      "componentType": 5126,
      "count": 3177,
      "max": [
        1,
        0.99813443422317505,
        0.99837934970855713
      ],
      "min": [
        -1,
        -0.99878948926925659,
        -0.99791985750198364
      ],
      "type": "VEC3"
    },
    {
      "bufferView": 2,
      "byteOffset": 12960,
      "componentType": 5126,
      "count": 3177,
      "max": [
        1,
        1
      ],
      "min": [
        0,
        0
      ],
      "type": "VEC2"
    },
    {
      "bufferView": 1,
      "byteOffset": 29280,
      "componentType": 5125,
      "count": 17232,
      "max": [
        3176
      ],
      "min": [
        0
      ],
      "type": "SCALAR"
    },
    {
      "bufferView": 3,
      "byteOffset": 115128,
      "componentType": 5126,
      "count": 459,
      "max": [
        3.0291476249694824,
        4.8419919013977051,
        5.5586490631103516
      ],
      "min": [
        -3.0440845489501953,
        -0.008775993250310421,
        -4.0188612937927246
      ],
      "type": "VEC3"
    },
    {
      "bufferView": 3,
      "byteOffset": 120636,
      "componentType": 5126,
      "count": 459,
      "max": [
        0.99680358171463013,
        1,
        1
      ],
      "min": [
        -0.99680352210998535,
        -1,
        -1
      ],
      "type": "VEC3"
    },
    {
      "bufferView": 2,
      "byteOffset": 38376,
      "componentType": 5126,
      "count": 459,
      "max": [
        1,
        1
      ],
      "min": [
        0,
        0
      ],
      "type": "VEC2"
    },
    {
      "bufferView": 1,
      "byteOffset": 98208,
      "componentType": 5125,
      "count": 2304,
      "max": [
        458
      ],
      "min": [
        0
      ],
      "type": "SCALAR"
    },
    {
      "bufferView": 5,
      "componentType": 5126,
      "count": 9,
      "max": [
        1,
        0.06233726441860199,
        0.99799436330795288,
        0,
        0.95639467239379883,
        1,
        1.1102230246251565e-16,
        0,
        0.94293397665023804,
        0.95439189672470093,
        1,
        0,
        2.7152414321899414,
        0,
        2.3719429969787598,
        1
      ],
      "min": [
        -0.01101501751691103,
        -1.2724059053435951e-15,
        -1,
        0,
        -1.919317298409301e-13,
        0.29197633266448975,
        -0.007681709248572588,
        0,
        -0.29186961054801941,
        -0.3329797089099884,
        -0.062835156917572021,
        0,
        -5.476841926574707,
        -6.1750097274780273,
        0,
        1
      ],
      "type": "MAT4"
    },
    {
      "bufferView": 0,
      "componentType": 5123,
      "count": 542,
      "max": [
        2,
        1,
        1,
        1
      ],
      "min": [
        1,
        1,
        1,
        1
      ],
      "type": "VEC4"
    },
    {
      "bufferView": 4,
      "componentType": 5126,
      "count": 542,
      "max": [
        1,
        0,
        0,
        0
      ],
      "min": [
        1,
        0,
        0,
        0
      ],
      "type": "VEC4"
    },
    {
      "bufferView": 0,
      "byteOffset": 4336,
      "componentType": 5123,
      "count": 589,
      "max": [
        5,
        5,
        5,
        5
      ],
      "min": [
        2,
        5,
        5,
        5
      ],
      "type": "VEC4"
    },
    {
      "bufferView": 4,
      "byteOffset": 8672,
      "componentType": 5126,
      "count": 589,
      "max": [
        1,
        0,
        0,
        0
      ],
      "min": [
        1,
        0,
        0,
        0
      ],
      "type": "VEC4"
    },
    {
      "bufferView": 0,
      "byteOffset": 9048,
      "componentType": 5123,
      "count": 489,
      "max": [
        1,
        1,
        1,
        1
      ],
      "min": [
        1,
        1,
        1,
        1
      ],
      "type": "VEC4"
    },
    {
      "bufferView": 4,
      "byteOffset": 18096,
      "componentType": 5126,
      "count": 489,
      "max": [
        1,
        0,
        0,
        0
      ],
      "min": [
        1,
        0,
        0,
        0
      ],
      "type": "VEC4"
    },
    {
      "bufferView": 0,
      "byteOffset": 12960,
      "componentType": 5123,
      "count": 3177,
      "max": [
        8,
        4,
        4,
        4
      ],
      "min": [
        2,
        4,
        4,
        4
      ],
      "type": "VEC4"
    },
    {
      "bufferView": 4,
      "byteOffset": 25920,
      "componentType": 5126,
      "count": 3177,
      "max": [
        1,
        0,
        0,
        0
      ],
      "min": [
        1,
        0,
        0,
        0
      ],
      "type": "VEC4"
    },
    {
      "bufferView": 0,
      "byteOffset": 38376,
      "componentType": 5123,
      "count": 459,
      "max": [
        8,
        4,
        4,
        4
      ],
      "min": [
        4,
        4,
        4,
        4
      ],
      "type": "VEC4"
    },
    {
      "bufferView": 4,
      "byteOffset": 76752,
      "componentType": 5126,
      "count": 459,
      "max": [
        1,
        0,
        0,
        0
      ],
      "min": [
        1,
        0,
        0,
        0
      ],
      "type": "VEC4"
    }
  ],
  "asset": {
    "extras": {
      "author": "Lazy Bryan (https://sketchfab.com/lazybryan)",
      "license": "CC-BY-4.0 (http://creativecommons.org/licenses/by/4.0/)",
      "source": "https://sketchfab.com/3d-models/tricycle-rig-1952a53b7f3745dab39c7175d49f204d",
      "title": "Tricycle Rig"
    },
    "generator": "Sketchfab-9.19.0",
    "version": "2.0"
  },
  "bufferViews": [
    {
      "buffer": 0,
      "byteLength": 42048,
      "byteOffset": 0,
      "byteStride": 8,
      "name": "shortBufferViews",
      "target": 34962
    },
    {
      "buffer": 0,
      "byteLength": 107424,
      "byteOffset": 42048,
      "name": "floatBufferViews",
      "target": 34963
    },
    {
      "buffer": 0,
      "byteLength": 42048,
      "byteOffset": 149472,
      "byteStride": 8,
      "name": "floatBufferViews",
      "target": 34962
    },
    {
      "buffer": 0,
      "byteLength": 126144,
      "byteOffset": 191520,
      "byteStride": 12,
      "name": "floatBufferViews",
      "target": 34962
    },
    {
      "buffer": 0,
      "byteLength": 84096,
      "byteOffset": 317664,
      "byteStride": 16,
      "name": "floatBufferViews",
      "target": 34962
    },
    {
      "buffer": 0,
      "byteLength": 576,
      "byteOffset": 401760,
      "byteStride": 64,
      "name": "floatBufferViews"
    }
  ],
  "buffers": [
    {
      "byteLength": 402336,
      "uri": "scene.bin"
    }
  ],
  "materials": [
    {
      "doubleSided": true,
      "emissiveFactor": [
        0,
        0,
        0
      ],
      "name": "Kids_Toy_TrikeBikeRedMat",
      "pbrMetallicRoughness": {
        "baseColorFactor": [
          0.85799999999999998,
          0.24180399999999999,
          0.16473599999999999,
          1
        ],
        "metallicFactor": 0,
        "roughnessFactor": 0.84067995058083012
      }
    },
    {
      "doubleSided": true,
      "emissiveFactor": [
        0,
        0,
        0
      ],
      "name": "Kids_Toy_TrikebikeBlackPlasticMat",
      "pbrMetallicRoughness": {
        "baseColorFactor": [
          0.083000000000000004,
          0.083000000000000004,
          0.083000000000000004,
          1
        ],
        "metallicFactor": 0,
        "roughnessFactor": 0.95058229538107042
      }
    },
    {
      "doubleSided": true,
      "emissiveFactor": [
        0,
        0,
        0
      ],
      "name": "Kids_Toy_TrikebikeBlackMat",
      "pbrMetallicRoughness": {
        "baseColorFactor": [
          0,
          0,
          0,
          1
        ],
        "metallicFactor": 0,
        "roughnessFactor": 0.78852574731188718
      }
    },
    {
      "doubleSided": true,
      "emissiveFactor": [
        0,
        0,
        0
      ],
      "name": "Kids_Toy_TrikebikeWhiteMat",
      "pbrMetallicRoughness": {
        "baseColorFactor": [
          1,
          1,
          1,
          1
        ],
        "metallicFactor": 0,
        "roughnessFactor": 0.93192972868176294
      }
    },
    {
      "doubleSided": true,
      "emissiveFactor": [
        0,
        0,
        0
      ],
      "name": "Kids_Toy_TrikebikeTyreMat",
      "pbrMetallicRoughness": {
        "baseColorFactor": [
          0.083000000000000004,
          0.083000000000000004,
          0.083000000000000004,
          1
        ],
        "metallicFactor": 0,
        "roughnessFactor": 0.95058229538107042
      }
    }
  ],
  "meshes": [
    {
      "name": "0",
      "primitives": [
        {
          "attributes": {
            "JOINTS_0": 21,
            "NORMAL": 1,
            "POSITION": 0,
            "TEXCOORD_0": 2,
            "WEIGHTS_0": 22
          },
          "indices": 3,
          "material": 0,
          "mode": 4
        }
      ]
    },
    {
      "name": "1",
      "primitives": [
        {
          "attributes": {
            "JOINTS_0": 23,
            "NORMAL": 5,
            "POSITION": 4,
            "TEXCOORD_0": 6,
            "WEIGHTS_0": 24
          },
          "indices": 7,
          "material": 1,
          "mode": 4
        }
      ]
    },
    {
      "name": "2",
      "primitives": [
        {
          "attributes": {
            "JOINTS_0": 25,
            "NORMAL": 9,
            "POSITION": 8,
            "TEXCOORD_0": 10,
            "WEIGHTS_0": 26
          },
          "indices": 11,
          "material": 2,
          "mode": 4
        }
      ]
    },
    {
      "name": "3",
      "primitives": [
        {
          "attributes": {
            "JOINTS_0": 27,
            "NORMAL": 13,
            "POSITION": 12,
            "TEXCOORD_0": 14,
            "WEIGHTS_0": 28
          },
          "indices": 15,
          "material": 3,
          "mode": 4
        }
      ]
    },
    {
      "name": "4",
      "primitives": [
        {
          "attributes": {
            "JOINTS_0": 29,
            "NORMAL": 17,
            "POSITION": 16,
            "TEXCOORD_0": 18,
            "WEIGHTS_0": 30
          },
          "indices": 19,
          "material": 4,
          "mode": 4
        }
      ]
    }
  ],
  "nodes": [
    {
      "children": [
        1
      ],
      "name": "RootNode (gltf orientation matrix)",
      "rotation": [
        -0.70710678118654746,
        -0,
        -0,
        0.70710678118654757
      ]
    },
    {
      "children": [
        2
      ],
      "name": "RootNode (model correction matrix)"
    },
    {
      "children": [
        3
      ],
      "matrix": [
        1,
        0,
        0,
        0,
        0,
        0,
        1,
        0,
        0,
        -1,
        0,
        0,
        0,
        0,
        0,
        1
      ],
      "name": "bbd21fe00e6647f2890470bde36fa60e.fbx"
    },
    {
      "children": [
        4
      ],
      "name": "RootNode"
    },
    {
      "children": [
        5,
        7,
        8,
        9,
        10,
        11,
        6
      ],
      "name": ""
    },
    {
      "children": [
        12
      ],
      "name": "_rootJoint"
    },
    {
      "matrix": [
        1,
        0,
        -1.2325951644078309e-32,
        0,
        6.8422776578360079e-49,
        1,
        5.5511151231257722e-17,
        0,
        1.2325951644078309e-32,
        -5.5511151231257722e-17,
        1,
        0,
        0,
        8.8817841970012523e-16,
        -2.2204460492503131e-16,
        1
      ],
      "name": ""
    },
    {
      "mesh": 0,
      "name": "",
      "skin": 0
    },
    {
      "mesh": 1,
      "name": "",
      "skin": 0
    },
    {
      "mesh": 2,
      "name": "",
      "skin": 0
    },
    {
      "mesh": 3,
      "name": "",
      "skin": 0
    },
    {
      "mesh": 4,
      "name": "",
      "skin": 0
    },
    {
      "children": [
        13,
        16,
        17
      ],
      "name": "COG_00",
      "rotation": [
        -0.11944246292114258,
        -0.69694584608078003,
        0.11944246292114258,
        0.69694584608078003
      ],
      "translation": [
        2.4286128663675299e-17,
        5.1481904983520508,
        -1.4005454778671265
      ]
    },
    {
      "children": [
        14,
        15
      ],
      "name": "front_J_01",
      "rotation": [
        0.72203856706619263,
        0.69159573316574097,
        -0.0084986947476863861,
        -0.016836272552609444
      ],
      "translation": [
        3.3381726741790771,
        8.8817841970012523e-16,
        -1.1188687957968996e-15
      ]
    },
    {
      "name": "handle_J_02",
      "rotation": [
        0.02388313040137291,
        0.99956411123275757,
        -0.016472270712256432,
        0.005463987123221159
      ],
      "translation": [
        0.71631622314453125,
        -8.8817841970012523e-16,
        -1.5265566588595902e-16
      ]
    },
    {
      "name": "frontwheel_J_03",
      "rotation": [
        0.013151264749467373,
        -2.4935236480935871e-16,
        -2.80027610054614e-15,
        0.99991351366043091
      ],
      "translation": [
        -4.0523805618286133,
        0.22467093169689178,
        -0.070055775344371796
      ]
    },
    {
      "name": "seat_J_04",
      "rotation": [
        0.11944246292114258,
        0.69694584608078003,
        -0.11944246292114258,
        0.69694584608078003
      ],
      "translation": [
        -0.021623920649290085,
        1.0965981483459473,
        1.1822804562612588e-14
      ]
    },
    {
      "children": [
        18,
        19
      ],
      "name": "back_J_05",
      "rotation": [
        0.119491346180439,
        0.69693750143051147,
        -0.11939361691474915,
        0.69695425033569336
      ],
      "translation": [
        -2.0801241397857666,
        -2.9732210636138916,
        1.6699938534223439e-15
      ]
    },
    {
      "name": "leftwheel_J_06",
      "rotation": [
        3.4567705838403686e-36,
        4.9303806576313238e-32,
        -7.0111636887304485e-05,
        1
      ],
      "translation": [
        2.7005383968353271,
        2.2204460492503131e-16,
        4.4408920985006262e-16
      ]
    },
    {
      "name": "rightwheel_J_07",
      "rotation": [
        3.4567705838403686e-36,
        4.9303806576313238e-32,
        -7.0111636887304485e-05,
        1
      ],
      "translation": [
        -2.7152414321899414,
        0.00075941835530102253,
        8.8817841970012523e-16
      ]
    }
  ],
  "scene": 0,
  "scenes": [
    {
      "name": "OSG_Scene",
      "nodes": [
        0
      ]
    }
  ],
  "skins": [
    {
      "inverseBindMatrices": 20,
      "joints": [
        5,
        12,
        13,
        14,
        15,
        16,
        17,
        18,
        19
      ],
      "skeleton": 5
    }
  ]
}

